<?xml version="1.0" encoding="UTF-8"?>
<svg width="135px" height="42px" viewBox="0 0 135 42" version="1.1" xmlns="http://www.w3.org/2000/svg" xmlns:xlink="http://www.w3.org/1999/xlink">
    <!-- Generator: Sketch 46.2 (44496) - http://www.bohemiancoding.com/sketch -->
    <title>Group</title>
    <desc>Created with Sketch.</desc>
    <defs></defs>
    <g id="Page-1" stroke="none" stroke-width="1" fill="none" fill-rule="evenodd">
        <g id="Início" transform="translate(-948.000000, -1298.000000)">
            <g id="Group-3" transform="translate(948.000000, 1298.000000)">
                <g id="Group">
                    <rect id="background" fill="#000000" x="0" y="0" width="135" height="42" rx="4"></rect>
                    <g id="icon" transform="translate(8.000000, 7.000000)" fill="#FFFFFF">
                        <path d="M14.1677308,4.17806316 C15.0338462,3.07894737 15.6649231,1.56684211 15.5020385,0.0421473684 C14.2081154,0.0905894737 12.6673077,0.909726316 11.7495,2.01595789 C10.9226923,2.96892632 10.2049231,4.54069474 10.4106154,6.01941053 C11.8170769,6.11410526 13.2628462,5.28456842 14.1677308,4.17806316" id="Fill-1"></path>
                        <path d="M17.9143462,16.1944421 L17.8936154,16.1536632 C17.4905769,15.3285053 17.3069615,14.0386316 17.4612308,12.9937053 L17.4612308,12.9548421 L17.4623077,12.9548421 C17.6238462,11.5864211 18.4907692,10.1862526 19.1837692,9.67829474 C19.1921154,9.67227368 19.2015385,9.66515789 19.2109615,9.65749474 L19.2109615,9.65448421 L19.2128462,9.65448421 C19.3665769,9.48206316 19.8046154,9.12463158 20.1005,8.90787368 C19.0076923,7.27343158 17.2183846,6.39189474 15.3962308,6.36343158 C13.5587308,6.20661053 11.6517692,7.54574737 10.6235769,7.51509474 C9.62876923,7.54574737 8.12592308,6.33715789 6.54015385,6.41351579 L6.52453846,6.41105263 C6.489,6.41105263 6.20334615,6.4272 6.20334615,6.4272 C4.10146154,6.47974737 2.23811538,7.73896842 1.18003846,9.64818947 L1.18003846,9.65448421 L1.17357692,9.65448421 L1.17357692,9.64818947 C0.754923077,10.3362316 0.252807692,11.9400211 0.177961538,12.9548421 L0.177961538,13.0087579 C0.0767307692,13.6527368 0.174461538,15.3690105 0.288346154,16.1944421 C0.293192308,16.2089474 0.294269231,16.2237263 0.295346154,16.2354947 L0.297769231,16.2338526 C0.386615385,17.0565474 0.797461538,18.6463789 1.10573077,19.4236421 L1.10573077,19.4304842 L1.10411538,19.4304842 C1.39973077,20.2895789 2.22626923,21.9007579 2.75961538,22.7242737 L2.75961538,22.7302947 L2.76526923,22.7302947 C3.84273077,24.3028842 5.11107692,26.0700632 6.78326923,25.9939789 C8.39865385,25.9315789 8.99338462,24.9030737 10.9391154,24.9192211 C12.8837692,24.9030737 13.4219615,25.9449895 15.1261923,25.9523789 C16.8635385,25.8765684 17.9401923,24.3050737 19.0181923,22.7302947 C19.5458846,21.9188211 20.3737692,20.3574526 20.6664231,19.4304842 L20.6704615,19.4304842 C20.7033077,19.3327789 20.7525769,19.1819789 20.7873077,19.0725053 C19.6446923,18.7429895 18.3628846,17.2133684 17.9143462,16.1944421" id="Fill-3"></path>
                    </g>
                    <g id="download-on-the-app-store" transform="translate(39.000000, 5.000000)" font-size="10" font-family="DINPro-Regular, DINPro" line-spacing="17" fill="#FFFFFF" font-weight="normal">
                        <text id="Baixe-nosso-app-na-A">
                            <tspan x="3.168" y="10">Baixe nosso app na</tspan>
                            <tspan x="0" y="17.2440002" font-size="18">App Store</tspan>
                        </text>
                    </g>
                </g>
            </g>
        </g>
    </g>
</svg>