<?xml version="1.0" encoding="UTF-8"?>
<svg width="135px" height="42px" viewBox="0 0 135 42" version="1.1" xmlns="http://www.w3.org/2000/svg" xmlns:xlink="http://www.w3.org/1999/xlink">
    <!-- Generator: Sketch 46.2 (44496) - http://www.bohemiancoding.com/sketch -->
    <title>Group</title>
    <desc>Created with Sketch.</desc>
    <defs>
        <linearGradient x1="19.2147947%" y1="-35.1571758%" x2="69.3023416%" y2="93.5367562%" id="linearGradient-1">
            <stop stop-color="#19A3B4" offset="0%"></stop>
            <stop stop-color="#5BC3AF" offset="34.816763%"></stop>
            <stop stop-color="#C8F7A6" offset="92.2336229%"></stop>
            <stop stop-color="#D7FEA5" offset="100%"></stop>
        </linearGradient>
        <path d="M18.0244885,8.60468697 L2.88343033,0.25729397 C2.45411317,0.021785354 2.05814792,-0.0330006382 1.73740188,0.0673217631 L14.1393457,12.500896 L18.0244885,8.60468697" id="path-2"></path>
        <linearGradient x1="-14.698314%" y1="-114.321644%" x2="74.8444046%" y2="114.156353%" id="linearGradient-4">
            <stop stop-color="#FC227C" offset="0%"></stop>
            <stop stop-color="#FEEB7B" offset="100%"></stop>
        </linearGradient>
        <linearGradient x1="28.1511582%" y1="-14.8137139%" x2="48.1878808%" y2="82.8944571%" id="linearGradient-5">
            <stop stop-color="#0E4DA0" offset="0%"></stop>
            <stop stop-color="#6BFED4" offset="100%"></stop>
        </linearGradient>
        <path d="M1.73669226,0.0673217631 C1.27615204,0.211757561 0.978113681,0.679217261 0.978113681,1.38645461 L0.980952142,23.6452206 C0.980952142,24.3446314 1.2697655,24.804976 1.71682304,24.9586614 L14.1393457,12.5030305 L1.73669226,0.0673217631" id="path-6"></path>
        <linearGradient x1="132.244588%" y1="16.465744%" x2="5.95853392%" y2="126.310354%" id="linearGradient-8">
            <stop stop-color="#FC472E" offset="0%"></stop>
            <stop stop-color="#FC472F" offset="0.331892433%"></stop>
            <stop stop-color="#893CD8" offset="100%"></stop>
        </linearGradient>
        <path d="M1.71682304,24.9586614 C2.03969793,25.0682334 2.44346894,25.0170049 2.88343033,24.7750927 L18.0422289,16.4163156 L14.1393457,12.5030305 L1.71682304,24.9586614" id="path-9"></path>
    </defs>
    <g id="Page-1" stroke="none" stroke-width="1" fill="none" fill-rule="evenodd">
        <g id="Início" transform="translate(-1098.000000, -1299.000000)">
            <g id="Group-3" transform="translate(948.000000, 1298.000000)">
                <g id="Group" transform="translate(150.000000, 1.000000)">
                    <rect id="background" fill="#050708" x="0" y="0" width="135" height="42" rx="4"></rect>
                    <g id="icon" transform="translate(8.000000, 8.000000)">
                        <mask id="mask-3" fill="white">
                            <use xlink:href="#path-2"></use>
                        </mask>
                        <use id="Fill-1" fill="url(#linearGradient-1)" xlink:href="#path-2"></use>
                        <path d="M18.0443578,16.4163156 L23.2131944,13.5667325 C24.261296,12.9868548 24.261296,12.0433974 23.2131944,11.4649427 L18.0251982,8.60468697 L14.1393457,12.500896 L18.0443578,16.4163156" id="Fill-2" fill="url(#linearGradient-4)"></path>
                        <mask id="mask-7" fill="white">
                            <use xlink:href="#path-6"></use>
                        </mask>
                        <use id="Fill-3" fill="url(#linearGradient-5)" xlink:href="#path-6"></use>
                        <mask id="mask-10" fill="white">
                            <use xlink:href="#path-9"></use>
                        </mask>
                        <use id="Fill-4" fill="url(#linearGradient-8)" xlink:href="#path-9"></use>
                    </g>
                    <g id="get-it-on-google-play" transform="translate(39.000000, 7.000000)" fill="#FFFFFF">
                        <g id="google-play" transform="translate(0.000000, 12.000000)">
                            <polygon id="Fill-1" points="60.6087924 1.19934783 61.4930406 1.19934783 61.4930406 12.5227174 60.6087924 12.5227174"></polygon>
                            <path d="M69.3116563,11.1776087 L69.3116563,6.62869565 C69.3116563,6.62869565 69.2496659,4.15780435 66.2400573,4.15780435 C63.2304487,4.15780435 63.1451885,6.48195652 63.1451885,6.48195652 L64.0992458,6.47882609 C64.0992458,6.47882609 64.0527064,4.89228261 66.2167876,4.89228261 C68.3808687,4.89228261 68.357599,6.72652174 68.357599,6.72652174 L68.357599,7.82393478 L66.5891026,7.82706522 C64.0644344,7.82706522 62.8194129,8.84191304 62.8194129,10.2727174 C62.8194129,11.7033261 63.5757709,12.7183696 65.4256181,12.7183696 C67.2756516,12.7183696 68.3110597,11.3488043 68.3110597,11.3488043 C68.3110597,11.9113043 68.5902959,12.5227174 68.5902959,12.5227174 L69.6141623,12.5227174 C69.6141623,12.5227174 69.3116563,11.8256087 69.3116563,11.1776087 L69.3116563,11.1776087 Z M68.357599,9.55115217 C68.357599,11.2022609 66.4612124,11.9234348 65.5071551,11.9234348 C64.5530979,11.9234348 63.7619284,11.4466304 63.7619284,10.346087 C63.7619284,9.24554348 65.0067637,8.52397826 66.5192936,8.52397826 L68.357599,8.52397826 L68.357599,9.55115217 L68.357599,9.55115217 Z" id="Fill-2"></path>
                            <path d="M70.2269928,4.35423913 L71.1577804,4.35423913 L74.043222,11.3163261 L76.851222,4.35423913 L77.9059905,4.35423913 C77.9059905,4.35423913 74.2295656,13.4438478 73.8881527,14.2998261 C73.5467399,15.1558043 72.7323007,15.9466304 71.7318902,15.9466304 C71.2817613,15.9466304 70.8320048,15.6693913 70.8320048,15.6693913 L71.0803389,14.9356957 C71.0803389,14.9356957 71.3054033,15.0661957 71.7473413,15.0661957 C72.1892792,15.0661957 72.9573652,13.9901087 72.9573652,13.9901087 L73.5158377,12.5878696 L70.2269928,4.35423913" id="Fill-3"></path>
                            <path d="M55.9643484,4.15780435 C54.3123866,4.15780435 53.2056802,5.58215217 53.174778,5.62206522 L53.174778,4.35423913 L52.290716,4.35423913 L52.290716,15.6531522 L53.174778,15.6531522 L53.174778,11.1825 C53.2053079,11.235913 54.0679618,12.7183696 55.9876181,12.7183696 C57.9422721,12.7183696 59.4548019,11.3977174 59.4548019,8.37273913 C59.4548019,5.34776087 57.6397661,4.15780435 55.9643484,4.15780435 L55.9643484,4.15780435 Z M55.8247303,11.9602174 C54.2207971,11.9602174 53.2056802,10.2328043 53.174778,10.1797826 L53.174778,6.64884783 C53.2058663,6.60502174 54.3795895,4.94119565 55.9410788,4.94119565 C57.3605298,4.94119565 58.547284,6.4575 58.547284,8.43808696 C58.547284,10.4186739 57.4536086,11.9602174 55.8247303,11.9602174 L55.8247303,11.9602174 Z" id="Fill-4"></path>
                            <path d="M10.7677232,1.99878261 C10.7677232,1.99878261 9.47597613,0.618065217 6.24670167,0.618065217 C2.31486874,0.618065217 0.0301575179,3.79173913 0.0301575179,6.79715217 C0.0301575179,9.42397826 1.75769928,12.7410652 6.05291169,12.7410652 C8.27321241,12.7410652 10.7677232,11.8825435 10.7677232,11.8825435 L10.7677232,9.84482609 C10.7677232,8.84328261 11.4136897,8.49795652 11.4136897,8.49795652 L7.97442959,8.49795652 L6.76328878,9.20523913 C7.41335084,9.03267391 9.13698329,9.0536087 9.13698329,9.0536087 L9.13698329,11.5792826 C9.13698329,11.5792826 8.37392363,12.0337826 7.21565155,12.0337826 C3.86481623,12.0337826 1.69328878,8.94423913 1.69328878,6.12391304 C1.69328878,2.68082609 4.03440573,1.22419565 6.06892124,1.22419565 C8.10362291,1.22419565 9.24979475,2.80702174 9.24979475,2.80702174 L8.8784105,3.44680435 L9.47597613,3.27854348 L10.7677232,1.99878261" id="Fill-5"></path>
                            <path d="M16.2338663,4.19028261 C13.9290501,4.19028261 12.0512792,5.9486087 12.0512792,8.51478261 C12.0512792,10.362913 13.4683103,12.5878696 15.9777136,12.5878696 C18.4874893,12.5878696 20.2463055,10.8297391 20.2463055,8.35336957 C20.2463055,5.877 18.5388687,4.19028261 16.2338663,4.19028261 L16.2338663,4.19028261 Z M16.4045728,12.0494348 C14.5026014,12.0494348 13.6047637,8.96321739 13.6047637,7.4021087 C13.6047637,5.841 14.6120621,4.72852174 15.7729403,4.72852174 C17.4289976,4.72852174 18.5727494,6.78228261 18.5727494,9.17863043 C18.5727494,10.0038913 18.3067303,12.0494348 16.4045728,12.0494348 L16.4045728,12.0494348 Z" id="Fill-6"></path>
                            <path d="M25.2021909,4.19458696 C22.8984916,4.19458696 21.0214654,5.95213043 21.0214654,8.51673913 C21.0214654,10.364087 22.4377518,12.5878696 24.9462243,12.5878696 C27.4546969,12.5878696 29.2123962,10.8305217 29.2123962,8.35552174 C29.2123962,5.88052174 27.5060764,4.19458696 25.2021909,4.19458696 L25.2021909,4.19458696 Z M25.3727112,12.0498261 C23.4718568,12.0498261 22.5742053,8.96497826 22.5742053,7.40465217 C22.5742053,5.84452174 23.5813174,4.73243478 24.7414511,4.73243478 C26.3969499,4.73243478 27.5401432,6.78541304 27.5401432,9.18019565 C27.5401432,10.0052609 27.2741241,12.0498261 25.3727112,12.0498261 L25.3727112,12.0498261 Z" id="Fill-7"></path>
                            <path d="M35.8304821,11.9926957 C35.007852,11.3959565 34.8468258,11.1105 34.8468258,10.8520435 C34.8468258,10.5937826 34.855389,10.3844348 35.4404821,9.80080435 C36.025389,9.21678261 36.5600334,8.60634783 36.5600334,7.50130435 C36.5600334,5.86134783 35.5084296,5.13058696 35.5084296,5.13058696 L36.5088401,5.09517391 L37.5092506,4.47104348 L33.6090644,4.47104348 C31.6078711,4.47104348 30.098506,6.0933913 30.098506,7.83997826 C30.098506,9.06965217 31.0905394,10.5399783 33.0492888,10.5399783 C33.2527589,10.5399783 33.3884678,10.4955652 33.3884678,10.4955652 C33.3884678,10.4955652 33.2700716,10.7675217 33.2700716,11.1285 C33.2700716,11.7168261 33.7529642,12.2425435 33.7529642,12.2425435 C33.7529642,12.2425435 29.233432,12.2470435 29.233432,15.2902174 C29.233432,17.1303261 31.2091217,17.8211739 32.8288783,17.8211739 C34.4486348,17.8211739 37.2210788,16.9035652 37.2210788,14.5592609 C37.2210788,13.4411087 36.6532983,12.5900217 35.8304821,11.9926957 L35.8304821,11.9926957 Z M33.6852029,10.0054565 C32.5025442,10.0054565 31.5611456,8.14754348 31.5611456,7.0245 C31.5611456,5.90145652 32.0952315,5.09928261 33.0364439,5.09928261 C33.9778425,5.09928261 35.0968353,6.23563043 35.0968353,8.30778261 C35.0968353,9.02954348 34.86842,10.0054565 33.6852029,10.0054565 L33.6852029,10.0054565 Z M33.5964057,17.0636087 C33.0492888,17.0636087 30.7217613,16.8364565 30.7217613,14.8981304 C30.7217613,12.96 33.4050358,12.7792174 33.7166635,12.7792174 C34.0286635,12.7792174 34.2954272,12.8263696 34.2954272,12.8263696 C35.1227112,13.5946957 36.0382339,13.9760217 36.0382339,15.1786957 C36.0382339,16.9035652 34.1429642,17.0636087 33.5964057,17.0636087 L33.5964057,17.0636087 Z" id="Fill-8"></path>
                            <path d="M37.3096897,0.650543478 L38.4253317,0.0109565217 L40.8729308,0.0109565217 C40.3025442,0.330652174 40.0890215,0.584021739 40.074315,2.07665217 C40.0594224,3.5688913 39.9853317,11.1711522 39.9853317,11.1711522 C39.9853317,11.7401087 40.4561241,11.8942826 40.8803771,11.8942826 C41.2664678,11.8942826 41.4435036,11.9731304 41.4435036,11.9731304 L40.9239379,12.353087 L37.9562148,12.353087 C37.9562148,12.353087 38.3823294,11.9527826 38.3875418,11.5534565 L38.5398186,0.654065217 L37.3096897,0.650543478" id="Fill-9"></path>
                            <path d="M48.1332601,6.37317391 C48.1332601,6.37317391 47.721852,4.15780435 45.2195227,4.15780435 C42.7173795,4.15780435 41.414463,6.22936957 41.414463,8.26473913 C41.414463,10.299913 42.5628687,12.5878696 45.4250406,12.5878696 C47.4303294,12.5878696 48.338778,11.0206957 48.338778,11.0206957 C48.338778,11.0206957 47.3789499,11.6152826 46.3161766,11.6152826 C44.7226683,11.6152826 42.8713317,9.84971739 42.8713317,7.25615217 C42.8713317,5.50858696 44.0305346,4.80619565 44.7569212,4.80619565 C46.21379,4.80619565 46.4790644,6.18417391 46.3509881,6.42736957 C46.2223532,6.67056522 42.9228974,8.08454348 42.9228974,8.08454348 L44.242568,8.01234783 L48.1332601,6.37317391" id="Fill-10"></path>
                        </g>
                        <text id="Baixe-nosso-App-no" font-family="DINPro-Regular, DINPro" font-size="10" font-weight="normal">
                            <tspan x="0" y="10">Baixe nosso App no</tspan>
                        </text>
                    </g>
                </g>
            </g>
        </g>
    </g>
</svg>