<?xml version="1.0" encoding="UTF-8"?>
<svg width="45px" height="34px" viewBox="0 0 45 34" version="1.1" xmlns="http://www.w3.org/2000/svg" xmlns:xlink="http://www.w3.org/1999/xlink">
    <!-- Generator: Sketch 46.2 (44496) - http://www.bohemiancoding.com/sketch -->
    <title>Group 4</title>
    <desc>Created with Sketch.</desc>
    <defs>
        <radialGradient cx="50%" cy="0%" fx="50%" fy="0%" r="100%" gradientTransform="translate(0.500000,0.000000),scale(0.755556,1.000000),rotate(90.000000),translate(-0.500000,-0.000000)" id="radialGradient-1">
            <stop stop-color="#4D4289" offset="0%"></stop>
            <stop stop-color="#40328B" offset="100%"></stop>
        </radialGradient>
    </defs>
    <g id="Page-1" stroke="none" stroke-width="1" fill="none" fill-rule="evenodd">
        <g id="Início" transform="translate(-1068.000000, -211.000000)" fill="url(#radialGradient-1)">
            <g id="Group-4" transform="translate(1068.000000, 211.000000)">
                <path d="M29.333651,17.087343 C29.2633737,17.2764319 29.1327936,17.4394509 28.9551169,17.5447161 L1.3567259,33.8753278 C1.21583573,33.9589258 1.05766432,34 0.900212963,34 C0.7038788,34 0.50802467,33.9352478 0.345292931,33.8081594 C0.0541519275,33.5776608 -0.0682569032,33.1927715 0.0375907327,32.8363926 L9.65220434,17.3702717 L9.65268438,16.9128986 L9.65315879,16.348491 L0.0385451807,1.16868129 C-0.0682625245,0.812302357 0.0515061157,0.427654721 0.34072698,0.195948011 C0.504418789,0.0666851429 0.70195304,0 0.900687377,0 C1.05573856,0 1.21078975,0.0398661181 1.35023981,0.121048031 L28.9486308,16.152543 C29.2270509,16.3146652 29.3974632,16.6113658 29.3998633,16.9344021 C29.3998633,16.9865905 29.3878625,17.0366043 29.380662,17.087343 L29.333651,17.087343 Z M44.9343094,17.087343 C44.8645884,17.2764319 44.7350119,17.4394509 44.5554844,17.5447161 L16.9578135,33.8753278 C16.8169233,33.9589258 16.6594719,34 16.5020206,34 C16.3054464,34 16.1091122,33.9352478 15.9468605,33.8081594 C15.6554795,33.5776608 15.5328307,33.1927715 15.6386783,32.8363926 L21.0330675,24.189794 L29.80162,17.5792668 C30.0344368,17.4434804 30.176047,17.1827801 30.21685,16.9128986 L30.2363996,16.9128986 C30.2302702,16.5942858 30.0164905,16.244426 29.7420993,16.0846498 L21.033551,9.60773445 L15.6396419,1.16868129 C15.5328342,0.812302357 15.6528429,0.427654721 15.9415837,0.195948011 C16.1047955,0.0666851429 16.3032898,0 16.5017841,0 C16.6573153,0 16.8111664,0.0398661181 16.9510965,0.121048031 L44.5511676,16.152543 C44.8271875,16.3146652 44.9975998,16.6113658 45,16.9344021 C45,16.9865905 44.9903993,17.0366043 44.9807986,17.087343 L44.9343094,17.087343 Z" id="Combined-Shape"></path>
            </g>
        </g>
    </g>
</svg>